<svg height="512" viewBox="0 0 512 512" width="512" xmlns="http://www.w3.org/2000/svg"><g id="Flat"><path d="m464 136a24.002 24.002 0 0 1 -24 24h-16v12.12012a163.89388 163.89388 0 0 1 -48 115.87988v64.37012a68.28635 68.28635 0 0 1 16 43.90988 86.40776 86.40776 0 0 1 -19.05 54.07007h-297.9a86.23406 86.23406 0 0 1 -19.05-54.07007 68.2245 68.2245 0 0 1 3.7-22.17993c.28-.8.57-1.6001.88-2.39014a68.08758 68.08758 0 0 1 9.76-17.29 96.628 96.628 0 0 1 -6.34-34.41993 115.89921 115.89921 0 0 1 33.94-81.93994l6.75-6.75 239.31-.68018a76.48415 76.48415 0 0 0 24-55.60988v-39.02a24.00619 24.00619 0 0 1 24-24h48a24.00619 24.00619 0 0 1 24 24z" fill="#fff1d8"/><path d="m128 104a77.74592 77.74592 0 0 1 0-79.99992l19.37836 9.68918a51.777 51.777 0 0 1 28.62164 46.31074z" fill="#eb352f"/><path d="m320 104a77.74592 77.74592 0 0 0 0-79.99992l-19.37836 9.68918a51.777 51.777 0 0 0 -28.62164 46.31074z" fill="#eb352f"/><path d="m104 432h240a32 32 0 0 1 32 32v24a0 0 0 0 1 0 0h-304a0 0 0 0 1 0 0v-24a32 32 0 0 1 32-32z" fill="#fff1d8"/><path d="m128 209.3482a87.64026 87.64026 0 0 1 -24-60.25553v-3.15147a81.94114 81.94114 0 0 1 24-57.9412h.00006a109.25462 109.25462 0 0 1 77.25469-32h37.49046a109.25471 109.25471 0 0 1 77.25479 32v.00005a81.94105 81.94105 0 0 1 24 57.94107v3.15151a87.64022 87.64022 0 0 1 -24 60.25553l-8 46.65184h-168z" fill="#fff1d8"/><g fill="#eedbc4"><path d="m128 24 35.37836 4.42229a63.02355 63.02355 0 0 1 44.62164 27.57771 43.18675 43.18675 0 0 1 -24.97054 21.65683l-7.02946 2.34317a51.777 51.777 0 0 0 -28.62164-46.31079z"/><path d="m320 24-35.37836 4.4223a63.02345 63.02345 0 0 0 -44.62164 27.5777 43.18675 43.18675 0 0 0 24.97054 21.65683l7.02946 2.34317a51.777 51.777 0 0 1 28.62164-46.31079z"/><path d="m128 416v16h-24a32.04547 32.04547 0 0 0 -28.94 18.3501h-.01a86.323 86.323 0 0 1 -9.64-14.8901 48.01406 48.01406 0 0 1 38.59-19.46z"/><path d="m382.58008 435.46a86.06737 86.06737 0 0 1 -9.63008 14.8901h-.01a32.04525 32.04525 0 0 0 -28.94-18.3501h-24v-16h24a47.9807 47.9807 0 0 1 38.58008 19.46z"/><path d="m336 456h16v32h-16z"/><path d="m304 456h16v32h-16z"/><path d="m128 456h16v32h-16z"/><path d="m96 456h16v32h-16z"/><path d="m256 488h-16v-42.74512a116.48774 116.48774 0 0 1 34.34326-82.91211l11.31348 11.31446a100.59072 100.59072 0 0 0 -29.65674 71.59765z"/><path d="m192 488h16v-42.74512a116.48774 116.48774 0 0 0 -34.34326-82.91211l-11.31348 11.31446a100.59072 100.59072 0 0 1 29.65674 71.59765z"/><path d="m376 330.17993v22.17017c-1.27-1.5-2.59009-2.94019-4-4.3501a67.8201 67.8201 0 0 0 -48.28-20h-11.72v-16h11.72a83.55236 83.55236 0 0 1 52.28 18.17993z"/></g><path d="m244.11787 272h-40.23574a141.2546 141.2546 0 0 1 -99.88213-41.37248v-.00005a16 16 0 0 1 .00024-22.62766 16 16 0 0 1 22.62719.00019 109.25473 109.25473 0 0 0 77.25476 32h40.23554a109.25473 109.25473 0 0 0 77.25476-32 16 16 0 0 1 22.62717-.00025 16 16 0 0 1 .00034 22.62772v.00005a141.2546 141.2546 0 0 1 -99.88213 41.37248z" fill="#eb352f"/><path d="m208 240h32v32h-32z" fill="#f2e368"/><circle cx="224" cy="304" fill="#eacf4d" r="32"/><path d="m216 304h16v32h-16z" fill="#e0b82f"/><path d="m192 136a7.97661 7.97661 0 0 1 -5.65674-2.34277 28.45771 28.45771 0 0 0 -29.27978-6.91211l-2.53321.84375a7.99958 7.99958 0 1 1 -5.06054-15.17774l2.53369-.84472a44.3713 44.3713 0 0 1 45.65332 10.77636 8 8 0 0 1 -5.65674 13.65723z" fill="#808080"/><path d="m256 136a8 8 0 0 1 -5.65674-13.65723 44.37038 44.37038 0 0 1 45.65283-10.77734l2.53418.8457a7.99958 7.99958 0 1 1 -5.06054 15.17774l-2.53369-.84473a28.4648 28.4648 0 0 0 -29.2793 6.91309 7.97661 7.97661 0 0 1 -5.65674 2.34277z" fill="#808080"/><path d="m269.65674 194.34277a8.00063 8.00063 0 0 0 -11.314.001 14.62614 14.62614 0 0 1 -20.686-.001l-5.65674-5.65677v-28.686h-16v28.686l-5.65723 5.65771a14.62673 14.62673 0 0 1 -20.68554 0 7.99984 7.99984 0 1 0 -11.31446 11.3125 30.62622 30.62622 0 0 0 43.314.001l2.34323-2.34373 2.34277 2.34277a30.62563 30.62563 0 0 0 43.31446 0 8 8 0 0 0 -.00049-11.31348z" fill="#eb352f"/><path d="m200 152 24 24 24-24a33.9411 33.9411 0 0 0 -48 0z" fill="#c7161f"/><path d="m159.99365 160.002a7.96731 7.96731 0 0 1 -3.57129-.84668l-10.23291-5.11621a19.41064 19.41064 0 0 0 -8.6372-2.03911h-1.55225a8 8 0 0 1 0-16h1.55225a35.48706 35.48706 0 0 1 15.793 3.72852l10.23243 5.11621a8.00137 8.00137 0 0 1 -3.584 15.15722z" fill="#808080"/><path d="m136 192a8.00024 8.00024 0 0 1 -5.65674-13.65723 35.08383 35.08383 0 0 1 24.97022-10.34277h4.68652a8 8 0 0 1 0 16h-4.68652a19.18715 19.18715 0 0 0 -13.65674 5.65723 7.97661 7.97661 0 0 1 -5.65674 2.34277z" fill="#808080"/><path d="m288.00635 160.002a8.00137 8.00137 0 0 1 -3.584-15.15722l10.23291-5.11621a35.48353 35.48353 0 0 1 15.79249-3.72857h1.55225a8 8 0 0 1 0 16h-1.55225a19.407 19.407 0 0 0 -8.63671 2.03906l-10.2334 5.11621a7.96731 7.96731 0 0 1 -3.57129.84673z" fill="#808080"/><path d="m312 192a7.97744 7.97744 0 0 1 -5.65674-2.34277 19.18715 19.18715 0 0 0 -13.65674-5.65723h-4.68652a8 8 0 0 1 0-16h4.68652a35.08383 35.08383 0 0 1 24.97022 10.34277 8.00024 8.00024 0 0 1 -5.65674 13.65723z" fill="#808080"/><path d="m424 176h-24a8.00008 8.00008 0 0 1 -8-8v-32h16v24h16z" fill="#eedbc4"/><path d="m424 136h16v24h-16z" fill="#eedbc4"/><path d="m179.31 395.31006-16 16a50.38841 50.38841 0 0 1 -10.96 8.31006 50.06467 50.06467 0 0 1 -59.66-8.31006l-11.72-11.71a111.80366 111.80366 0 0 1 -20.39-27.89006 68.08758 68.08758 0 0 1 9.76-17.29 95.94329 95.94329 0 0 0 21.94 33.86l11.72 11.72a34.01279 34.01279 0 0 0 42.46 4.48 33.153 33.153 0 0 0 5.54-4.48l16-16a33.94113 33.94113 0 0 0 -48-48l-11.31-11.31006a49.93592 49.93592 0 1 1 70.62 70.62012z" fill="#eedbc4"/><path d="m227.03 485.3501a46.79295 46.79295 0 0 1 -59.62006-27.02l-1.42-3.66016-7.31-18.79-5.79994-14.90994-.53-1.34985-7.00995-18.02c-.27-.7002-.53-1.41016-.77-2.12012a46.33552 46.33552 0 0 1 -2.4-16.14014 46.80564 46.80564 0 0 1 90.34995-15.83989 1.22517 1.22517 0 0 1 .07.16992l7.83 20.13013v.01l5.8 14.90991 7.77 19.95.67 1.73a46.78 46.78 0 0 1 -27.63 60.95014z" fill="#f2e368"/><path d="m232.52 367.5-44.56 16.2-43.39 15.78a46.33552 46.33552 0 0 1 -2.4-16.14014l51.54-18.73974 30.28-11.02a46.41451 46.41451 0 0 1 8.53 13.91988z" fill="#e0b82f"/><path d="m246.22 402.72-87.54 33.16-5.8-14.91 87.54-33.16z" fill="#e0b82f"/><path d="m257.75 438.33008-84.46 30.72a46.87842 46.87842 0 0 1 -5.88-10.72l-1.42-3.66016 88-32 .67 1.73a46.75008 46.75008 0 0 1 3.09 13.93016z" fill="#e0b82f"/><path d="m257.75 438.33008a46.75008 46.75008 0 0 0 -3.09-13.93018l-.67-1.73-7.77-19.9499-5.8-14.90991v-.01l-7.83-20.13017a1.22517 1.22517 0 0 0 -.07-.16992 46.79543 46.79543 0 0 0 -43.55-29.67993h-.22a46.85834 46.85834 0 0 0 -46.58 45.51977 46.33552 46.33552 0 0 0 2.4 16.14014c.24.71.5 1.41992.77 2.12012l7.00995 18.02.53 1.34985 5.8 14.90991 7.31 18.79 1.42 3.66016a46.812 46.812 0 0 0 90.34-20zm-36.19 31.98a30.78319 30.78319 0 0 1 -39.23-17.77l-1.43-3.66992-7.31-18.79-5.8-14.91016-2.34-6-5.18-13.33008c-.21-.52978-.39-1.02978-.53-1.4497a30.81016 30.81016 0 0 1 57.89-21.0503l.25.66016.01.02 6.53 16.78v.01l1.09 2.7998 5.8 14.92017 7.76 19.91995.67 1.73a30.78849 30.78849 0 0 1 -18.18 40.13013z" fill="#eacf4d"/><path d="m179.31 395.31006-16 16a50.38841 50.38841 0 0 1 -10.96 8.31006l-7.00995-18.02c-.27-.7002-.53-1.41016-.77-2.12012a46.33552 46.33552 0 0 1 -2.4-16.14014 46.85834 46.85834 0 0 1 46.58-45.51977 50.01749 50.01749 0 0 1 -9.44005 57.48997z" fill="#eacf4d"/><path d="m193.71 364.6001a49.85155 49.85155 0 0 1 -5.75 19.0999l-43.39 15.78a46.33552 46.33552 0 0 1 -2.4-16.14014z" fill="#c4a129"/><path d="m193.58 354.16992a30.79909 30.79909 0 0 0 -33.84 40.22022c.14.41992.32.91992.53 1.4497l5.18 13.33008-2.14 2.14014a50.38841 50.38841 0 0 1 -10.96 8.31006l-7.00995-18.02c-.27-.7002-.53-1.41016-.77-2.12012a46.33552 46.33552 0 0 1 -2.4-16.14014 46.85834 46.85834 0 0 1 46.58-45.51977 49.577 49.577 0 0 1 4.82995 16.34983z" fill="#e0b82f"/><path d="m175.63 372.31006a33.71676 33.71676 0 0 1 -7.63 11.68994l-1.66 1.65991-12.68 12.67993-1.66 1.66016a33.67819 33.67819 0 0 1 -11.68 7.62988h-.01a33.943 33.943 0 0 1 -36.31-7.62988l-11.72-11.72a96.52152 96.52152 0 0 1 -21.94-33.87012l49.66-18.40988a33.94107 33.94107 0 0 1 55.63 36.31006z" fill="#fff1d8"/><path d="m175.63 372.31006a33.71676 33.71676 0 0 1 -7.63 11.68994l-1.66 1.65991-20-20 11.32-11.32007z" fill="#eedbc4"/><path d="m153.66 398.33984-1.66 1.66016a33.67819 33.67819 0 0 1 -11.68 7.62988h-.01l-17.97-17.97 11.32-11.32004z" fill="#eedbc4"/></g></svg>